<svg xmlns="http://www.w3.org/2000/svg" viewBox="0 0 441.000000 331.000000" width="441.000000" height="331.000000">
<g transform="translate(0.000000,331.000000) scale(0.100000,-0.100000)"
fill="#000000" stroke="none">
<path d="M2156 3228 c-27 -11 -55 -17 -63 -14 -7 3 -13 1 -13 -5 0 -6 -11 -20
-25 -31 -14 -11 -25 -25 -25 -32 0 -6 -5 -17 -12 -24 -13 -13 -17 -28 -24 -92
-9 -83 1 -161 30 -225 49 -110 49 -112 8 -162 -36 -43 -153 -138 -201 -163
-35 -18 -111 -90 -126 -121 -19 -36 -55 -203 -55 -254 0 -22 -9 -54 -20 -73
-19 -30 -19 -35 -5 -90 13 -48 14 -72 4 -152 -6 -52 -16 -100 -21 -107 -5 -6
-8 -36 -7 -65 1 -30 -2 -61 -6 -69 -5 -7 -8 -67 -6 -132 2 -100 0 -122 -15
-145 -14 -22 -18 -46 -17 -121 1 -52 6 -98 12 -104 6 -6 11 -21 11 -33 0 -13
5 -26 10 -29 6 -3 10 -18 10 -33 0 -15 12 -39 29 -57 l29 -30 7 -205 c10 -277
25 -300 23 -35 -1 116 2 220 6 232 4 12 2 24 -4 28 -15 9 -12 35 4 35 19 0 28
27 20 65 -4 25 -1 37 15 52 19 18 40 80 45 133 1 14 5 32 9 40 3 8 8 26 10 40
2 14 5 4 6 -22 1 -37 5 -48 21 -53 30 -9 33 -41 23 -198 -9 -150 -8 -388 2
-472 3 -27 7 -93 9 -145 2 -52 9 -111 15 -130 7 -22 7 -38 1 -44 -11 -11 -13
-72 -4 -140 l7 -46 136 0 137 0 13 49 c7 27 11 96 10 157 -1 60 1 134 5 164 4
30 8 94 10 141 3 62 12 113 36 185 48 149 46 147 54 79 4 -33 14 -95 21 -137
10 -52 12 -108 8 -172 -5 -75 -2 -105 12 -148 15 -46 15 -60 5 -105 -10 -39
-10 -62 -2 -95 6 -24 9 -61 5 -81 l-6 -37 142 0 c104 0 143 3 146 13 2 6 6
109 9 227 4 173 8 224 22 260 14 35 18 86 22 230 2 102 8 193 13 202 5 10 10
75 10 144 l0 126 49 21 c28 12 50 27 50 35 0 7 5 10 10 7 6 -4 8 -16 4 -28
-11 -35 -7 -76 10 -102 21 -31 21 -94 0 -109 -9 -7 -13 -18 -8 -30 6 -15 14
-17 45 -13 49 6 86 34 100 75 6 18 21 45 34 60 35 42 42 155 17 258 -14 56
-22 130 -26 254 -4 126 -11 196 -25 250 -10 41 -22 94 -26 117 -4 24 -11 45
-16 49 -5 3 -7 10 -3 15 3 5 -12 60 -34 122 -22 62 -43 123 -47 137 -13 43
-62 134 -88 162 -26 28 -116 77 -179 97 -24 8 -57 34 -92 73 -50 55 -54 63
-49 96 3 21 9 44 13 52 5 8 11 38 15 65 5 28 13 66 20 86 12 33 11 74 -2 109
-4 8 -5 20 -4 27 1 6 -3 14 -9 18 -5 3 -10 15 -10 25 0 10 -13 29 -29 43 -17
14 -27 27 -24 30 3 3 -14 11 -36 17 -23 6 -40 14 -37 18 9 15 -101 7 -148 -10z
m721 -2160 c-3 -8 -6 -5 -6 6 -1 11 2 17 5 13 3 -3 4 -12 1 -19z"/>
<path d="M3555 3187 c-85 -41 -143 -118 -157 -209 -16 -111 -12 -195 11 -220
25 -26 26 -41 6 -58 -26 -22 -118 -61 -130 -56 -21 8 -141 -125 -179 -198 -20
-38 -36 -75 -36 -83 0 -8 -9 -31 -20 -53 -11 -21 -19 -49 -18 -62 0 -13 -5
-89 -11 -170 -7 -81 -10 -152 -6 -158 12 -19 14 -134 3 -147 -11 -13 -3 -50
17 -73 7 -8 18 -44 24 -80 7 -36 19 -94 27 -130 8 -36 20 -87 25 -115 6 -27
21 -70 34 -95 15 -31 24 -71 28 -125 8 -108 22 -154 52 -165 14 -5 27 -20 29
-32 17 -82 27 -158 22 -166 -3 -5 -1 -51 5 -103 7 -73 6 -117 -6 -193 -8 -54
-12 -117 -8 -141 3 -28 0 -59 -10 -86 -9 -24 -19 -95 -22 -156 l-7 -113 311 0
311 0 6 26 c4 14 3 56 0 93 -6 60 -4 74 16 112 16 31 23 62 24 104 0 33 8 101
18 150 9 50 24 137 31 195 8 58 22 134 30 170 11 44 16 119 17 233 1 119 4
166 12 162 6 -3 19 -8 28 -11 13 -5 16 -13 11 -35 -4 -21 -1 -30 12 -35 13 -5
15 -14 10 -41 -4 -24 -1 -42 9 -58 8 -13 18 -35 20 -51 3 -15 14 -36 25 -48
12 -14 22 -42 26 -81 3 -33 12 -91 20 -130 7 -38 16 -102 19 -142 3 -39 10
-82 15 -95 14 -36 1 169 -15 232 -21 84 -18 172 8 217 12 21 28 45 35 55 12
13 12 24 3 60 -7 23 -15 48 -20 53 -8 10 -14 95 -11 154 1 19 -6 45 -15 59
-10 15 -14 35 -10 52 3 15 2 31 -2 35 -4 3 -12 34 -18 68 -6 34 -20 96 -29
137 -10 41 -19 87 -19 101 -1 14 -6 32 -12 40 -6 8 -11 41 -12 74 -2 80 -11
134 -28 167 -8 15 -14 56 -14 91 0 35 -7 108 -15 163 -8 54 -15 105 -15 112 0
7 -24 39 -52 71 -29 32 -61 71 -71 86 -11 14 -31 31 -45 38 -30 12 -72 46 -72
58 0 3 8 9 19 12 22 6 49 57 58 111 3 23 17 58 30 78 19 31 23 52 24 123 1 74
-2 91 -25 129 -15 26 -46 57 -78 77 -45 29 -63 34 -123 37 -57 2 -79 -1 -120
-21z"/>
<path d="M720 3170 c-55 -26 -110 -67 -110 -83 0 -7 -6 -23 -13 -37 -13 -25
-15 -245 -3 -258 4 -3 6 1 6 9 0 7 9 -4 21 -25 11 -22 43 -60 71 -86 34 -32
48 -52 43 -60 -5 -8 -4 -11 3 -6 9 5 30 -52 20 -58 -1 -1 -28 -18 -58 -38 -30
-20 -72 -41 -92 -48 -52 -16 -63 -32 -49 -72 10 -28 9 -35 -5 -43 -75 -45 -92
-91 -105 -275 -8 -118 -25 -277 -44 -405 -8 -56 -20 -158 -34 -305 -7 -69 -17
-134 -22 -145 -25 -57 -32 -85 -35 -136 -1 -32 -10 -71 -18 -87 -9 -17 -16
-38 -16 -47 0 -8 -4 -23 -10 -33 -15 -28 -48 -212 -39 -218 5 -3 -2 -24 -16
-48 -15 -26 -25 -58 -25 -82 0 -21 -16 -120 -35 -218 -19 -99 -33 -182 -31
-184 6 -5 19 43 56 213 17 77 42 162 55 188 14 27 25 57 25 68 0 32 48 129 64
129 8 0 34 18 57 40 23 22 43 40 43 40 1 0 2 -75 2 -168 1 -92 7 -192 13 -222
10 -51 16 -109 26 -277 4 -68 14 -148 22 -175 4 -16 19 -18 142 -18 l138 0 6
66 c4 37 4 120 0 184 -4 83 -2 119 6 124 6 4 12 28 13 54 1 26 5 0 9 -58 4
-58 12 -127 18 -155 7 -27 14 -77 17 -110 10 -116 -7 -105 164 -105 l150 0 0
63 c0 34 -7 107 -15 162 -15 99 -13 200 5 260 9 29 53 265 66 352 4 23 13 44
20 47 9 3 14 21 14 46 0 22 5 40 10 40 6 0 10 -12 10 -27 0 -47 14 -57 79 -60
33 -1 63 2 66 7 4 6 13 10 22 10 21 0 53 38 53 64 0 12 10 68 23 126 30 142
29 377 -2 605 -12 88 -24 207 -27 265 -5 109 -36 318 -60 405 -19 68 -48 114
-85 129 -17 7 -39 27 -49 44 -11 18 -28 32 -37 32 -10 0 -24 9 -31 20 -7 11
-21 20 -31 20 -10 0 -30 9 -45 21 -20 16 -26 29 -26 59 0 20 6 43 14 49 12 10
15 7 19 -21 3 -25 4 -20 5 17 1 28 6 65 11 82 6 20 6 35 0 38 -5 4 -14 15 -19
25 -9 17 -8 19 7 13 16 -6 16 -5 4 10 -17 21 -13 21 34 1 56 -23 52 -11 -8 29
-49 33 -107 86 -67 62 11 -7 10 -2 -4 20 -31 49 -67 83 -135 128 -58 38 -72
42 -135 45 -55 2 -81 -2 -116 -18z m530 -1402 c0 -24 6 -81 14 -128 20 -118
25 -181 15 -174 -5 3 -9 18 -9 34 0 16 -9 53 -19 82 -18 50 -26 120 -23 196 3
48 22 39 22 -10z m45 -588 c-8 -9 -15 -26 -15 -38 0 -40 -17 -23 -23 23 -4 25
-9 56 -13 69 -4 18 -1 25 12 28 13 2 24 -8 36 -31 16 -31 16 -37 3 -51z"/>
</g>
</svg>
