<svg xmlns="http://www.w3.org/2000/svg" viewBox="0 0 600.000000 238.000000" width="600.000000" height="238.000000">
<g transform="translate(0.000000,238.000000) scale(0.100000,-0.100000)"
fill="#000000" stroke="none">
<path d="M2550 2033 c-8 -3 -31 -16 -50 -28 -19 -12 -72 -34 -118 -50 -74 -26
-86 -34 -113 -72 -16 -24 -29 -46 -29 -48 0 -11 -117 -175 -148 -207 -20 -21
-30 -38 -23 -38 9 0 8 -7 -3 -27 -8 -16 -18 -49 -21 -75 -6 -49 -38 -98 -76
-119 -11 -5 -108 -21 -217 -35 -415 -52 -459 -62 -588 -135 -63 -35 -111 -77
-244 -211 -91 -91 -190 -182 -220 -200 -58 -37 -139 -68 -175 -68 -32 0 -75
37 -75 65 0 28 14 40 70 60 24 9 52 23 63 33 11 9 35 17 57 17 37 0 38 0 23
18 -16 17 -16 17 3 11 12 -4 6 7 -18 30 -23 22 -48 36 -63 36 -18 0 -23 4 -19
15 13 33 -58 14 -104 -28 l-22 -20 0 21 c0 41 -17 22 -34 -36 -45 -162 -1
-260 125 -277 83 -12 143 14 286 121 69 52 127 93 129 92 9 -10 -70 -85 -112
-107 -43 -23 -55 -37 -101 -121 -70 -129 -72 -139 -32 -184 17 -20 29 -39 27
-42 -3 -2 -41 -7 -85 -11 -61 -4 -92 -2 -130 11 -59 20 -98 14 -212 -33 -103
-42 -131 -72 -97 -100 20 -17 5594 -17 5610 -1 17 18 -16 36 -78 44 -33 3 -92
25 -157 55 -159 76 -217 85 -351 52 -84 -20 -98 -15 -45 16 23 14 37 32 45 61
7 23 21 46 32 52 30 16 100 11 160 -11 30 -11 65 -23 77 -26 12 -3 28 -11 34
-19 24 -29 99 -10 99 25 0 14 -10 20 -46 25 -64 8 -175 42 -199 60 -20 15 -19
16 12 41 17 14 42 42 54 63 13 20 32 44 44 52 66 47 100 105 129 225 10 39 27
80 38 92 11 12 18 31 16 45 -3 22 -8 23 -81 26 -74 3 -78 4 -75 25 2 14 14 24
36 31 19 5 40 19 48 31 35 53 18 162 -34 224 -34 40 -57 37 -74 -9 -7 -21 -15
-29 -25 -26 -11 5 -13 -1 -7 -29 7 -40 -3 -44 -42 -19 -33 22 -38 14 -20 -30
15 -35 14 -36 -14 -56 -16 -11 -58 -34 -94 -51 -53 -25 -69 -28 -86 -19 -11 6
-28 10 -38 8 -13 -2 -18 5 -20 31 -2 21 -7 30 -11 22 -6 -9 -13 -9 -34 0 -29
13 -51 4 -27 -11 9 -5 -3 -8 -34 -8 -27 0 -53 -5 -59 -11 -8 -8 -4 -11 14 -11
13 0 31 -5 39 -10 13 -8 13 -10 -2 -10 -9 0 -27 -14 -40 -31 -21 -25 -33 -31
-81 -36 -38 -4 -57 -10 -57 -19 0 -16 35 -40 73 -49 35 -9 37 -46 2 -80 -20
-21 -21 -25 -7 -25 10 0 24 6 31 13 10 10 12 8 9 -8 -2 -11 -13 -24 -25 -30
-12 -5 -24 -17 -26 -26 -3 -10 -20 -18 -48 -22 -24 -4 -54 -9 -65 -13 -27 -7
-37 19 -60 150 -17 100 -36 146 -90 221 -40 56 -58 68 -49 33 6 -22 3 -23 -44
-23 -42 0 -55 -5 -78 -27 -15 -15 -24 -31 -20 -35 4 -3 13 -1 19 5 20 20 30
13 14 -10 -20 -28 -22 -98 -2 -98 7 0 16 -13 20 -30 6 -32 26 -42 26 -12 0 20
52 113 72 130 12 9 19 7 35 -11 32 -33 51 -105 63 -222 5 -59 12 -111 16 -116
3 -6 -1 -25 -10 -44 -19 -38 -36 -149 -28 -179 5 -18 3 -19 -11 -8 -24 20 -33
9 -52 -63 -18 -65 -47 -106 -60 -86 -9 16 -59 -13 -72 -42 -9 -20 -21 -26 -65
-31 -65 -8 -65 -8 -106 0 -20 4 -38 2 -48 -7 -13 -11 -14 -9 -9 14 5 18 1 37
-14 60 -25 41 -26 65 -4 111 12 25 20 33 28 26 8 -7 19 -2 35 15 13 13 38 29
56 35 28 10 34 17 34 40 0 36 -15 46 -45 30 -16 -9 -23 -20 -22 -39 3 -43 -32
-38 -72 10 l-34 41 22 28 c33 46 28 57 -31 63 -68 7 -89 -12 -81 -73 5 -36 3
-40 -21 -50 -18 -6 -26 -17 -26 -32 0 -14 -13 -34 -32 -49 -28 -23 -30 -29
-19 -43 7 -9 24 -16 36 -16 26 0 40 26 25 45 -7 9 -5 19 9 36 16 21 22 22 45
11 32 -14 33 -39 6 -92 -17 -34 -45 -60 -64 -60 -2 0 -52 44 -110 98 -100 93
-150 131 -161 121 -6 -7 241 -259 254 -259 6 0 11 -5 11 -11 0 -8 -4 -8 -15 1
-21 17 -49 5 -89 -40 l-36 -40 -100 0 -101 0 6 33 c9 44 -13 67 -65 67 -33 0
-44 6 -74 42 -40 46 -42 54 -21 81 9 13 12 35 8 70 -5 47 -2 55 21 76 21 19
36 24 70 22 48 -2 69 14 65 51 -1 13 1 38 5 56 6 27 12 33 27 29 10 -3 19 -1
19 4 0 5 -10 9 -22 9 -23 1 -23 1 -3 17 19 15 19 15 -9 9 -26 -6 -28 -5 -17 8
8 10 9 16 3 16 -6 0 -14 -4 -17 -10 -12 -19 -44 -10 -65 20 -12 16 -28 30 -36
30 -8 0 -14 4 -14 9 0 17 -32 21 -74 10 -22 -6 -43 -10 -44 -8 -2 2 -10 -9
-19 -24 -13 -26 -18 -28 -54 -22 -49 8 -75 -11 -85 -61 -8 -43 13 -85 53 -105
l31 -16 -29 -17 c-33 -19 -39 -18 -151 27 -92 37 -92 34 -48 170 17 52 30 108
30 125 0 56 -29 146 -53 164 -24 19 -87 24 -87 8 0 -5 -6 -10 -14 -10 -7 0
-26 -18 -41 -40 -16 -23 -35 -45 -44 -50 -13 -7 -14 -11 -3 -22 20 -20 87 -15
121 10 42 30 79 29 87 -3 9 -35 -2 -84 -37 -166 -17 -39 -33 -93 -36 -119 -5
-41 -11 -53 -37 -71 -18 -12 -42 -37 -54 -55 -14 -21 -30 -34 -44 -34 -12 0
-32 -10 -45 -22 -14 -13 -47 -34 -76 -48 -42 -20 -53 -31 -60 -59 -6 -26 -4
-37 9 -52 30 -33 73 -24 129 26 56 50 60 52 73 30 9 -18 34 -21 75 -10 30 8
36 -5 11 -26 -16 -13 -15 -34 1 -101 l7 -28 -78 0 c-44 0 -117 7 -164 15 -115
21 -199 20 -310 -5 -52 -11 -95 -20 -97 -20 -2 0 -3 7 -3 15 0 8 4 15 9 15 32
0 121 137 121 185 0 17 -15 58 -34 92 l-33 61 82 84 c86 88 133 131 121 111
-4 -7 -3 -13 3 -13 5 0 19 20 30 44 19 38 22 64 24 221 l3 177 -43 36 c-43 36
-59 64 -48 81 3 6 22 -1 42 -15 32 -21 46 -24 103 -22 l65 3 -2 49 c-1 27 -6
53 -12 59 -6 6 -11 20 -11 31 1 20 1 20 20 -3 11 -13 20 -29 20 -37 0 -8 5
-14 10 -14 14 0 13 10 -10 55 l-21 40 31 -35 c16 -19 30 -28 30 -21 0 8 -16
29 -36 47 -29 28 -34 39 -30 64 4 27 2 30 -15 25 -10 -4 -19 -2 -19 4 0 6 12
13 28 17 45 10 49 12 19 13 -16 1 -37 -4 -49 -10 -25 -13 -35 -5 -18 16 16 20
1 19 -21 -1 -18 -16 -59 -11 -59 7 0 6 -11 21 -25 35 -20 20 -26 37 -28 75 -1
27 -5 49 -8 49 -4 0 -9 10 -12 22 -4 12 -9 19 -13 15 -4 -4 -12 1 -19 10 -7 9
-18 18 -26 19 -63 11 -76 12 -89 7z m-585 -1244 c59 -11 105 -25 111 -34 11
-14 54 -199 54 -230 0 -8 19 -32 42 -54 24 -22 40 -42 37 -45 -9 -10 -63 -14
-261 -22 l-186 -7 -15 29 c-8 16 -26 40 -40 52 -21 19 -29 22 -45 13 -34 -18
-62 -13 -93 18 -44 44 -38 68 36 157 47 57 67 90 72 117 l6 39 91 -7 c50 -4
136 -15 191 -26z m-650 -54 c16 -41 16 -47 1 -85 -9 -22 -16 -48 -16 -58 0
-10 41 -59 91 -109 l92 -91 -64 -7 c-35 -4 -106 -15 -158 -26 -124 -25 -144
-24 -249 11 -50 17 -97 30 -106 30 -24 0 -19 15 10 28 20 10 24 17 19 35 -14
44 -41 82 -63 85 -30 5 -28 15 8 46 37 30 100 59 189 87 37 11 98 37 136 59
39 22 75 40 82 40 6 0 19 -20 28 -45z m1076 -116 c16 -11 29 -28 29 -36 0 -14
-2 -14 -18 0 -10 10 -28 17 -40 17 -15 0 -22 6 -22 20 0 26 14 25 51 -1z
m2459 -84 c0 -18 14 -31 65 -59 60 -34 96 -63 61 -50 -10 4 -28 -6 -47 -25
-37 -37 -67 -39 -177 -11 -42 11 -93 22 -112 25 -19 3 -36 7 -37 9 -3 3 44 96
53 105 2 2 15 -11 29 -28 44 -51 94 -35 125 39 14 34 40 30 40 -5z m-1588 -15
c18 -11 54 -23 80 -26 26 -4 45 -11 42 -16 -3 -4 -11 -8 -17 -7 -32 4 -48 -3
-59 -26 -15 -34 -38 -32 -38 4 0 29 -21 57 -34 44 -8 -8 -26 15 -26 35 0 17
14 15 52 -8z m1928 -5 c0 -10 -10 -15 -28 -15 -31 0 -51 -18 -73 -65 -17 -35
-61 -49 -52 -16 4 14 -7 28 -46 57 -28 21 -49 39 -48 41 2 1 30 -2 63 -8 47
-9 70 -8 114 4 71 20 70 20 70 2z m-1607 -127 c-2 -5 -8 -6 -12 -3 -5 2 -34 5
-65 6 -31 1 -56 4 -56 7 0 3 9 16 20 28 l21 21 49 -26 c26 -14 46 -29 43 -33z
m490 42 c8 -29 32 -34 73 -15 32 15 37 15 60 1 13 -9 24 -24 24 -32 0 -17 5
-17 -167 2 l-53 6 21 29 c24 34 35 36 42 9z m502 0 c4 -6 -5 -10 -19 -10 -14
0 -26 5 -26 10 0 6 9 10 19 10 11 0 23 -4 26 -10z"/>
<path d="M2917 1758 c-3 -9 7 -18 29 -24 19 -6 34 -7 34 -3 0 5 -5 9 -12 9 -6
0 -19 7 -28 15 -14 13 -19 13 -23 3z"/>
<path d="M3816 1593 c-4 -4 6 -19 20 -34 l27 -28 -35 5 c-51 9 -56 -11 -9 -35
55 -28 57 -37 8 -37 -57 1 -58 -15 -3 -31 53 -16 60 -30 16 -31 -54 -1 -73
-32 -21 -32 39 0 47 -14 16 -28 -27 -12 -35 -38 -10 -28 8 3 15 1 15 -4 0 -6
-4 -10 -10 -10 -12 0 -13 -27 -1 -32 4 -1 12 -14 16 -27 l7 -24 -28 20 c-118
83 -277 129 -347 100 -41 -18 -44 -23 -22 -54 14 -19 26 -21 147 -25 116 -3
139 -7 181 -28 28 -14 47 -31 47 -41 0 -9 7 -22 16 -30 9 -7 23 -29 32 -48 21
-43 53 -49 62 -11 l6 25 15 -22 c16 -26 29 -30 29 -8 0 8 14 21 30 30 20 10
30 23 30 38 0 49 46 59 136 32 59 -18 54 -17 54 -5 0 6 -11 16 -25 22 -39 18
-30 26 25 20 70 -7 82 0 68 38 -14 43 -50 63 -115 66 -35 1 -62 9 -74 20 -19
17 -21 17 -49 -5 -30 -21 -30 -21 -30 -1 0 22 -18 27 -26 7 -5 -14 7 -76 21
-109 4 -11 3 -18 -3 -18 -6 0 -16 26 -22 58 -23 123 -40 182 -61 215 -32 48
-117 105 -133 90z"/>
</g>
</svg>
