<svg xmlns="http://www.w3.org/2000/svg" viewBox="0 0 392.000000 220.000000" width="392.000000" height="220.000000">
<g transform="translate(0.000000,220.000000) scale(0.100000,-0.100000)"
fill="#000000" stroke="none">
<path d="M3542 992 c32 -19 29 -45 -8 -74 -13 -11 -29 -42 -39 -76 -9 -31 -26
-83 -38 -116 -19 -50 -28 -61 -62 -77 -39 -17 -39 -18 -7 -12 l33 6 -21 -35
c-31 -53 -50 -65 -111 -71 l-57 -5 -1 56 c0 30 -3 75 -7 99 -4 28 -2 48 6 58
7 8 10 22 6 30 -8 22 -47 19 -53 -5 -3 -11 -16 -23 -28 -26 -17 -4 -24 -15
-29 -44 -3 -21 -13 -45 -21 -53 -8 -8 -12 -17 -9 -19 2 -3 -11 -27 -30 -54
-30 -44 -37 -49 -70 -48 -20 1 -39 4 -43 7 -3 4 -2 38 4 76 5 38 6 78 2 89 -4
10 -3 70 2 132 7 84 6 116 -3 121 -19 12 -39 -2 -45 -32 -9 -44 -20 -44 -28 1
-11 68 -25 56 -25 -22 0 -40 -3 -90 -7 -111 l-6 -38 -42 41 c-24 24 -49 40
-57 37 -9 -4 -8 -6 4 -6 9 -1 37 -25 61 -54 41 -47 45 -57 45 -102 -1 -40 -8
-59 -36 -97 -32 -45 -37 -48 -83 -50 -27 -1 -56 -2 -65 -2 -14 -1 -17 10 -19
56 -3 66 16 100 67 121 l31 12 -42 29 c-37 26 -41 32 -35 61 7 42 -22 57 -47
26 -16 -19 -18 -19 -30 -4 -12 14 -12 17 0 21 10 3 8 9 -9 22 -23 17 -24 17
-48 -12 -24 -28 -24 -29 -6 -43 24 -18 31 -18 37 -2 4 10 7 10 18 0 11 -11 10
-13 -2 -13 -35 0 -84 -144 -60 -174 8 -10 8 -21 1 -41 -8 -21 -8 -30 1 -36 6
-4 8 -12 5 -18 -10 -15 -83 -14 -88 1 -4 10 -10 10 -32 0 -37 -17 -70 -16 -63
2 11 29 19 141 9 127 -8 -11 -12 -10 -20 6 -8 14 -8 23 -1 30 15 15 7 57 -12
61 -19 3 -72 -81 -85 -133 -9 -38 -70 -108 -103 -117 -33 -10 -38 -3 -15 23
18 20 18 21 -1 36 -11 8 -27 18 -35 23 -11 6 -15 27 -15 77 0 52 -3 68 -14 68
-29 0 -67 -81 -86 -184 -8 -41 -19 -79 -24 -84 -5 -5 -31 -4 -64 3 -30 6 -66
8 -80 5 -24 -6 -25 -4 -24 32 0 21 -2 107 -5 191 -5 127 -3 154 9 161 9 5 13
20 11 42 -4 41 -31 50 -59 20 -22 -23 -35 -26 -44 -10 -4 6 -17 -3 -31 -23
-13 -18 -31 -36 -39 -41 -8 -4 -15 -16 -15 -25 0 -9 -9 -32 -20 -49 -11 -18
-16 -33 -10 -33 5 0 11 4 15 9 3 5 17 -1 31 -14 24 -22 25 -26 14 -67 -6 -24
-29 -76 -50 -116 -23 -43 -37 -79 -33 -89 5 -13 2 -15 -19 -10 -15 4 -42 0
-64 -9 -39 -15 -39 -15 -15 4 21 17 22 23 13 53 -17 57 -20 134 -5 155 17 23
17 40 -2 48 -21 8 -45 -3 -45 -20 0 -8 -9 -14 -20 -14 -29 0 -38 -24 -56 -149
-2 -18 -9 -42 -15 -52 -11 -21 -39 -26 -39 -7 0 7 -11 0 -25 -15 -36 -38 -49
-35 -42 10 4 25 2 42 -8 53 -12 14 -12 23 -1 67 8 28 17 56 20 62 12 20 42 12
54 -14 6 -14 19 -25 27 -25 24 0 19 123 -7 146 -17 16 -23 16 -96 -10 -78 -28
-96 -32 -190 -40 -36 -3 -61 -11 -76 -25 -12 -11 -40 -27 -61 -34 -33 -11 -44
-22 -67 -68 -29 -57 -33 -85 -19 -108 14 -22 37 2 46 47 l7 37 13 -30 c11 -26
10 -33 -6 -51 -11 -11 -19 -32 -19 -46 0 -25 -2 -26 -85 -30 -47 -2 -91 -10
-97 -16 -7 -7 -23 -12 -35 -12 -13 0 -42 -9 -64 -19 -32 -16 -41 -17 -45 -6
-7 17 -42 7 -55 -16 -13 -25 -29 -24 -29 1 0 11 6 20 14 20 8 0 17 9 21 20 3
10 20 31 37 45 l31 26 -24 26 -24 26 30 -16 c17 -8 48 -29 69 -46 l39 -31 19
31 19 32 -27 28 c-15 16 -46 38 -68 49 -65 31 -114 77 -121 113 -4 17 -11 37
-16 43 -6 8 -4 25 7 47 21 43 13 67 -21 67 -19 0 -29 -9 -42 -37 -22 -47 -50
-55 -59 -18 -4 16 -12 24 -20 21 -7 -3 -15 -2 -17 2 -2 4 -1 0 2 -8 2 -8 5
-48 6 -88 0 -48 5 -76 13 -81 9 -5 12 -25 10 -57 -3 -49 -3 -49 -63 -81 -69
-37 -68 -42 1 -13 26 11 49 18 52 15 5 -5 -17 -66 -46 -125 -15 -31 -22 -35
-60 -38 -23 -2 -42 -8 -42 -13 0 -6 -4 -8 -9 -5 -5 3 -14 0 -20 -8 -6 -7 -22
-11 -37 -8 -19 3 -26 0 -31 -16 -2 -11 -16 -23 -29 -26 -23 -6 -24 -9 -24
-106 l0 -100 1960 0 1960 0 0 271 0 272 -88 -6 c-112 -8 -166 0 -156 22 4 9
11 45 15 81 8 72 50 212 70 236 10 13 10 17 -2 24 -10 7 -16 2 -22 -20 -7 -28
-18 -36 -42 -30 -5 2 -19 4 -30 5 -26 2 -35 62 -11 71 9 3 16 9 16 13 0 16
-99 71 -126 71 l-29 -1 27 -17z m-834 -288 c-10 -10 -28 6 -28 24 0 15 1 15
17 -1 9 -9 14 -19 11 -23z m212 -140 c0 -33 -1 -34 -40 -34 -22 0 -40 2 -40 5
0 12 63 74 71 69 5 -3 9 -21 9 -40z m-1800 -89 c0 -70 -70 -117 -113 -75 -17
15 -17 22 -6 59 l12 41 54 0 c50 0 53 -1 53 -25z m82 -25 c-4 -43 -10 -50 -46
-50 -38 0 -39 9 -8 58 21 32 58 26 54 -8z m-242 0 c0 -12 7 -31 15 -43 l14
-23 -69 -2 c-39 -1 -70 1 -70 5 0 11 83 83 97 83 7 0 13 -9 13 -20z"/>
<path d="M2998 663 c6 -2 18 -2 25 0 6 3 1 5 -13 5 -14 0 -19 -2 -12 -5z"/>
</g>
</svg>
