<svg xmlns="http://www.w3.org/2000/svg" viewBox="0 0 367.000000 276.000000" width="367.000000" height="276.000000">
<g transform="translate(0.000000,276.000000) scale(0.100000,-0.100000)"
fill="#000000" stroke="none">
<path d="M1960 2501 c-14 -4 -48 -20 -77 -34 -38 -19 -73 -28 -135 -32 -88 -7
-128 -20 -128 -42 0 -7 -11 -13 -24 -13 -29 0 -41 -15 -38 -50 2 -20 -6 -30
-33 -44 -53 -29 -59 -41 -61 -125 -3 -90 -20 -257 -29 -271 -3 -5 -1 -10 4
-10 7 0 11 -28 11 -71 0 -56 4 -77 21 -100 25 -35 34 -31 43 16 4 20 15 50 25
68 18 31 33 97 46 204 6 45 14 60 63 114 l57 61 64 -12 c35 -6 75 -9 88 -5 18
4 44 -5 90 -31 59 -33 69 -35 87 -23 77 49 80 49 157 18 39 -16 76 -29 83 -29
6 0 34 -11 63 -24 41 -19 59 -36 89 -83 20 -32 42 -73 47 -91 10 -30 8 -35
-22 -66 -29 -30 -33 -39 -28 -73 2 -21 12 -58 22 -83 9 -25 19 -85 22 -133 6
-86 6 -87 18 -53 17 49 43 86 60 86 8 0 18 6 22 14 4 8 17 15 28 17 18 4 21
18 33 129 8 69 18 134 23 145 15 30 16 124 2 170 -6 22 -17 66 -23 98 -9 47
-20 67 -51 98 -21 21 -39 43 -39 48 0 5 -21 26 -47 46 -27 21 -66 55 -88 75
-34 32 -54 40 -135 58 -177 38 -264 48 -310 33z"/>
<path d="M1593 1700 c-18 -4 -44 -15 -58 -24 -45 -29 -30 -96 38 -169 32 -33
58 -44 142 -57 51 -8 72 -7 98 4 45 19 77 61 77 103 l0 34 56 -3 57 -3 11 -45
c14 -53 31 -80 71 -112 26 -20 41 -23 115 -23 75 0 91 3 131 27 159 93 119
196 -80 206 -91 5 -214 -12 -230 -32 -15 -18 -130 -5 -142 16 -10 19 -120 62
-197 77 -29 6 -54 11 -55 10 -1 -1 -17 -4 -34 -9z"/>
<path d="M1495 980 c-15 -30 -54 -99 -87 -153 -32 -53 -63 -110 -69 -125 -19
-50 -60 -100 -87 -105 -15 -4 -80 -46 -144 -94 -65 -49 -166 -119 -225 -156
-59 -38 -148 -100 -198 -138 -49 -38 -112 -82 -140 -98 -27 -16 -70 -47 -95
-69 l-45 -41 1406 -1 1406 0 -7 42 c-7 44 -31 101 -57 129 -15 18 -152 81
-328 152 -133 54 -343 148 -405 181 -43 23 -44 26 -41 63 3 21 5 47 5 58 0 30
-35 228 -43 243 -4 7 -26 -52 -50 -130 -23 -79 -47 -153 -53 -164 -8 -17 -29
-26 -95 -40 -82 -17 -86 -17 -95 1 -28 48 -83 95 -136 115 -31 12 -87 37 -124
57 -58 30 -77 48 -134 124 -36 49 -73 93 -82 98 -9 5 -24 31 -33 58 l-16 48
-28 -55z"/>
</g>
</svg>
