<svg xmlns="http://www.w3.org/2000/svg" viewBox="0 0 593.000000 380.000000" width="593.000000" height="380.000000">
<g transform="translate(0.000000,380.000000) scale(0.100000,-0.100000)"
fill="#000000" stroke="none">
<path d="M3805 3524 c-3 -66 -7 -122 -8 -125 -1 -3 -110 -102 -241 -220 l-240
-213 -260 -53 c-144 -30 -295 -60 -336 -68 -126 -25 -143 -30 -148 -44 -4 -11
7 -13 58 -7 73 8 73 26 5 -149 -25 -66 -62 -163 -81 -215 -19 -52 -41 -108
-48 -125 -8 -16 -18 -43 -21 -58 -5 -18 -52 -68 -144 -150 -75 -67 -154 -138
-176 -158 -180 -165 -618 -549 -625 -549 -5 0 -38 -29 -73 -64 -73 -73 -113
-97 -166 -98 -52 -1 -85 20 -165 101 -53 55 -76 71 -97 71 -44 0 -54 -29 -32
-100 17 -58 19 -60 51 -60 25 0 43 -9 66 -32 18 -18 35 -40 38 -48 4 -12 13
-8 42 18 20 17 44 32 54 31 13 0 12 -2 -4 -9 -29 -11 -64 -58 -64 -84 0 -22
24 -64 44 -78 21 -14 73 -8 99 12 49 39 43 104 -15 141 -28 17 -29 20 -8 14
14 -4 34 -18 45 -31 27 -32 41 -30 76 7 28 30 33 31 84 26 50 -5 70 3 45 18
-5 3 -9 38 -7 77 l2 71 220 196 c120 108 320 287 444 398 124 111 228 200 230
198 3 -4 -2 -20 -39 -115 -12 -30 -30 -77 -40 -105 -10 -27 -39 -104 -65 -170
-25 -66 -63 -167 -85 -225 -21 -58 -48 -130 -60 -160 -43 -111 -59 -160 -51
-160 10 0 37 62 79 180 17 47 40 110 52 140 12 30 36 96 55 145 33 88 63 166
105 275 12 30 36 95 53 144 l32 88 218 196 c120 107 222 191 226 186 14 -16
50 -127 73 -224 17 -76 22 -126 22 -245 0 -138 -2 -157 -28 -235 -44 -133 -68
-172 -133 -220 -32 -23 -182 -129 -333 -235 -151 -107 -284 -201 -295 -210
-10 -8 -32 -15 -48 -15 -28 0 -28 0 -10 -25 23 -32 39 -31 57 3 8 15 53 54
100 87 48 33 125 87 171 120 47 33 123 87 170 120 47 33 113 79 145 103 33 23
60 38 60 33 0 -18 -123 -164 -209 -248 -93 -91 -159 -139 -232 -168 -42 -17
-45 -20 -35 -42 11 -23 26 -31 26 -14 0 6 11 22 25 37 14 15 25 22 25 15 0 -6
-7 -14 -15 -17 -16 -6 -30 -41 -27 -64 7 -46 15 -60 44 -79 18 -11 27 -21 20
-21 -8 0 -25 9 -39 20 -33 26 -43 25 -72 -5 -13 -14 -33 -24 -45 -24 -21 2
-21 2 1 6 13 2 32 16 43 30 60 77 -23 183 -109 139 -71 -37 -70 -130 2 -161
18 -8 24 -14 15 -15 -9 0 -30 11 -46 25 -37 31 -53 31 -82 0 -25 -27 -76 -41
-109 -30 -12 4 -33 17 -46 31 -13 13 -36 24 -50 24 -24 0 -26 3 -23 33 2 26 8
33 28 35 15 2 30 13 37 27 l11 25 -224 0 -224 0 12 -25 c9 -21 18 -25 55 -25
23 0 44 -4 44 -10 6 -53 5 -55 -44 -60 -33 -4 -52 -12 -62 -28 -31 -43 -120
-38 -153 9 -19 27 -39 24 -74 -11 -22 -23 -39 -30 -67 -30 -40 0 -91 31 -91
55 0 27 -32 25 -68 -5 -52 -43 -83 -40 -135 13 -30 32 -53 45 -81 50 -37 6
-60 23 -51 38 3 3 26 3 51 -2 39 -8 49 -6 60 9 11 15 9 18 -29 25 -270 54
-301 64 -359 124 -45 46 -56 88 -35 130 15 28 111 117 172 160 60 41 189 105
284 139 117 43 166 42 214 -4 60 -55 114 -47 149 22 11 23 40 69 65 104 54 76
45 84 -56 53 -80 -24 -104 -20 -139 28 -26 36 -42 39 -67 11 -22 -24 -38 -25
-68 -5 -21 14 -25 11 -81 -45 -32 -33 -61 -60 -65 -60 -7 0 -31 95 -31 125 0
10 10 29 22 42 31 33 13 43 -80 43 -90 0 -121 -13 -198 -83 -202 -185 -325
-470 -294 -682 14 -102 62 -219 127 -308 l28 -39 2295 -5 2296 -5 17 55 c19
59 25 67 215 252 57 55 111 118 122 141 23 46 26 107 7 144 -18 35 -72 35 -99
0 -22 -30 -16 -53 18 -68 47 -22 26 -54 -80 -123 -33 -22 -66 -39 -75 -39 -10
0 -89 110 -203 280 l-188 279 36 83 c98 229 145 375 185 578 40 201 29 610
-15 610 -7 0 -36 -6 -66 -14 -30 -8 -84 -19 -120 -25 -36 -6 -83 -16 -105 -21
-50 -12 -236 -48 -330 -65 -79 -14 -207 -39 -305 -60 -149 -32 -292 -57 -297
-51 -8 8 5 11 187 46 91 17 194 37 230 45 36 8 128 26 205 40 77 14 169 33
205 41 66 14 159 32 310 61 82 15 127 33 83 33 -13 0 -24 9 -28 23 l-8 22 -4
-23 c-2 -12 -14 -27 -25 -33 -18 -10 -24 -8 -39 12 l-17 23 -4 -25 c-4 -28
-44 -40 -54 -15 -9 23 -24 20 -24 -4 0 -15 -7 -20 -24 -20 -14 0 -28 5 -31 10
-10 16 -22 12 -28 -10 -6 -24 -42 -27 -51 -5 -8 22 -26 18 -26 -5 0 -11 -4
-20 -9 -20 -5 0 -16 -3 -25 -6 -10 -4 -16 -1 -16 9 0 28 -20 29 -30 3 -10 -28
-50 -37 -50 -11 0 24 -28 17 -32 -7 -4 -32 -43 -36 -53 -6 l-7 23 -7 -25 c-8
-30 -61 -43 -61 -15 0 9 -6 15 -12 12 -7 -2 -12 -11 -10 -19 3 -22 -40 -32
-54 -13 -15 21 -24 19 -24 -5 0 -15 -7 -20 -25 -20 -14 0 -28 7 -31 15 -9 21
-24 19 -24 -4 0 -24 -41 -36 -53 -16 -11 21 -27 19 -27 -4 0 -27 -38 -34 -51
-10 -11 21 -34 15 -25 -6 2 -7 -2 -16 -10 -19 -27 -10 -44 -6 -44 10 0 9 -6
14 -12 12 -7 -3 -13 -11 -13 -19 0 -8 -12 -15 -27 -17 -16 -2 -28 1 -28 7 0 6
-6 11 -14 11 -8 0 -13 -8 -12 -17 1 -13 -7 -19 -26 -21 -20 -2 -28 1 -28 12 0
9 -4 16 -10 16 -5 0 -10 5 -10 10 0 6 7 10 15 10 8 0 15 -7 15 -15 0 -8 7 -15
15 -15 8 0 15 9 15 19 0 17 18 31 40 31 4 0 10 -9 13 -20 7 -27 25 -25 29 3 4
27 48 38 48 12 0 -9 6 -15 13 -12 6 2 12 10 12 17 0 20 44 33 51 15 8 -21 32
-19 30 3 -1 12 7 18 27 20 19 2 27 -1 27 -12 0 -9 5 -16 10 -16 6 0 10 8 10
19 0 23 49 36 57 15 7 -18 23 -18 23 0 0 23 41 31 55 12 16 -21 25 -20 25 3 0
17 18 31 40 31 5 0 12 -9 15 -20 8 -27 23 -25 27 2 4 29 35 35 53 11 13 -17
14 -16 24 10 11 29 38 36 47 12 8 -21 36 -19 32 3 -2 12 5 18 25 20 20 2 27
-1 27 -13 0 -9 6 -15 13 -12 6 2 11 11 9 19 -3 22 40 32 54 13 15 -21 24 -19
24 5 0 11 4 20 9 20 5 0 16 3 24 6 10 3 18 -2 22 -15 8 -26 25 -27 25 -2 0 27
40 39 55 17 16 -21 25 -20 25 3 0 29 32 36 51 12 18 -22 29 -18 29 11 0 22 45
25 54 3 8 -22 28 -18 21 4 -4 13 0 20 15 24 11 3 20 10 20 15 0 7 -11 7 -32 1
-18 -5 -82 -19 -143 -30 -60 -12 -153 -29 -205 -39 -52 -11 -140 -28 -195 -39
-55 -11 -138 -27 -185 -35 -47 -9 -116 -23 -155 -31 -118 -26 -326 -65 -343
-64 -36 1 27 17 208 53 231 45 376 74 460 92 36 7 139 27 230 44 91 17 192 37
225 45 33 7 104 21 158 30 60 11 100 22 104 31 10 27 -7 32 -69 18 -96 -20
-578 -111 -743 -140 -136 -23 -347 -63 -372 -70 -18 -5 -30 7 -80 83 -32 48
-76 112 -96 140 l-37 53 0 112 c0 157 -16 171 -25 22z m-11 -261 c-8 -165 -13
-202 -32 -207 -9 -3 -66 -14 -127 -26 -60 -12 -146 -29 -190 -39 -44 -10 -82
-17 -84 -15 -5 4 22 29 267 247 85 76 158 137 162 137 5 0 7 -44 4 -97z m56
87 c0 -6 34 -61 75 -122 42 -61 72 -114 68 -118 -4 -4 -37 -13 -72 -19 -34 -7
-69 -15 -77 -18 -12 -4 -14 20 -14 141 0 91 4 146 10 146 6 0 10 -5 10 -10z
m-70 -349 c0 -5 -33 -14 -72 -21 -40 -6 -100 -18 -133 -25 -33 -8 -100 -22
-150 -31 -169 -30 -237 -43 -258 -50 -20 -6 -111 -24 -322 -61 -49 -9 -92 -18
-94 -19 -2 -2 1 -10 8 -18 10 -12 16 -12 43 1 28 14 31 14 40 -1 12 -22 28
-20 28 4 0 24 45 28 54 5 8 -23 29 -18 23 5 -3 11 -2 20 1 20 4 0 17 3 30 6
16 5 22 2 22 -11 0 -9 6 -15 13 -12 6 2 11 9 10 15 -2 6 7 17 19 23 18 10 24
8 39 -12 10 -13 19 -19 20 -14 1 6 2 17 3 25 2 21 45 25 52 6 9 -23 24 -20 24
4 0 16 7 20 30 20 17 0 30 -4 30 -10 0 -18 18 -10 23 10 6 24 45 27 53 5 9
-22 24 -18 24 5 0 11 4 20 9 20 5 0 16 3 24 6 10 3 18 -2 22 -15 3 -12 11 -19
16 -15 6 3 8 12 5 20 -9 23 42 30 59 8 13 -17 14 -17 15 -2 0 10 10 22 22 29
18 10 24 8 39 -12 l17 -23 4 25 c4 31 44 39 63 12 14 -17 14 -17 15 4 0 28 39
42 55 19 16 -21 25 -20 25 3 0 12 9 20 25 23 20 4 25 1 25 -16 0 -17 -2 -18
-10 -6 -8 13 -11 11 -16 -7 -8 -29 -44 -41 -59 -19 -16 21 -25 20 -25 -3 0
-20 -32 -37 -50 -26 -5 3 -10 13 -10 21 0 8 -5 12 -11 9 -6 -4 -8 -13 -5 -21
9 -23 -44 -31 -61 -9 -13 18 -14 18 -17 -6 0 -7 -9 -17 -19 -23 -14 -9 -21 -7
-31 7 -17 22 -26 22 -26 -3 0 -26 -47 -28 -66 -2 -12 16 -13 16 -14 -4 0 -27
-40 -40 -56 -19 -15 21 -24 19 -24 -5 0 -11 -4 -20 -9 -20 -5 0 -16 -3 -24 -6
-10 -3 -18 2 -22 15 -8 26 -25 27 -25 2 0 -26 -40 -39 -52 -17 -12 22 -28 20
-28 -4 0 -11 -4 -20 -9 -20 -5 0 -16 -3 -24 -6 -9 -3 -16 3 -20 16 -7 26 -27
18 -27 -11 0 -14 -7 -19 -25 -19 -16 0 -25 6 -25 16 0 9 -6 14 -12 12 -7 -3
-13 -11 -13 -19 0 -8 -12 -15 -27 -17 -16 -2 -28 1 -28 7 0 6 -6 11 -14 11 -8
0 -13 -8 -12 -17 1 -13 -7 -19 -26 -21 -20 -2 -28 1 -28 12 0 9 -4 16 -10 16
-15 0 -12 -40 3 -46 18 -6 145 15 357 61 36 8 139 28 230 45 91 17 192 37 225
45 97 22 148 28 142 17 -4 -5 -21 -12 -39 -15 -52 -10 -233 -45 -348 -67 -165
-33 -286 -56 -409 -80 -63 -11 -118 -23 -123 -26 -4 -3 6 -23 23 -44 17 -21
29 -44 27 -50 -4 -12 -391 -360 -396 -355 -3 2 55 164 123 340 26 66 53 139
62 163 10 28 22 44 36 47 43 9 674 133 792 155 66 13 143 28 170 35 62 16 85
18 85 6z m-2750 -1154 c0 -25 -31 -57 -56 -57 -32 0 -30 13 7 44 34 29 49 33
49 13z m4005 -276 c97 -145 174 -269 172 -275 -5 -13 -108 -48 -212 -72 -57
-13 -151 -17 -501 -21 -419 -5 -432 -5 -427 -24 3 -10 9 -19 14 -19 5 0 9 -16
9 -35 0 -19 -5 -35 -10 -35 -6 0 -29 -12 -51 -26 -23 -14 -43 -23 -47 -20 -3
3 -1 6 5 6 6 0 25 13 42 29 25 23 31 37 31 69 0 33 -6 45 -32 67 -26 22 -39
26 -67 21 -92 -14 -107 -136 -22 -173 20 -8 30 -17 24 -20 -14 -5 -73 33 -73
47 0 16 -39 -2 -64 -31 -15 -16 -34 -29 -44 -28 -13 0 -13 2 4 9 32 13 54 50
54 92 0 30 -6 42 -33 62 -19 15 -45 27 -58 27 -24 2 -24 2 -1 6 25 5 87 -29
96 -52 9 -24 24 -17 42 20 13 27 25 37 58 46 48 13 42 9 256 139 91 55 186
119 212 141 39 34 65 47 149 70 56 16 121 40 144 53 37 22 95 84 95 101 0 19
44 105 51 98 4 -4 87 -127 184 -272z m-4270 179 c24 -27 27 -24 -137 -173 -59
-53 -112 -97 -118 -97 -6 0 -10 24 -10 58 0 127 88 230 196 231 38 1 55 -4 69
-19z m3440 -51 c143 -6 264 -15 268 -19 18 -16 -5 -50 -86 -127 -79 -76 -144
-123 -282 -205 -60 -36 -260 -138 -270 -138 -3 0 -5 115 -5 256 l0 257 58 -6
c31 -4 174 -12 317 -18z m-479 -121 c-4 -73 -9 -186 -11 -250 -4 -111 -5 -119
-29 -142 -46 -42 -27 -120 36 -145 16 -7 18 -10 6 -10 -10 -1 -33 13 -51 29
-42 36 -49 37 -91 5 -18 -14 -39 -25 -47 -24 -11 0 -11 2 1 6 8 3 27 17 43 31
59 56 20 152 -62 152 -39 -1 -61 -13 -79 -45 -11 -19 -11 -19 -12 5 0 14 16
102 35 195 61 298 66 314 83 318 10 3 55 5 101 6 l83 1 -6 -132z m-221 95 c-4
-16 -13 -59 -20 -98 -11 -59 -43 -215 -71 -342 l-6 -33 -89 0 c-101 0 -102 1
-74 84 8 24 33 104 54 177 73 247 62 223 106 230 22 3 55 7 74 8 31 1 33 0 26
-26z m-173 -19 c-2 -10 -19 -73 -39 -139 -19 -66 -39 -136 -45 -155 -5 -19
-18 -63 -29 -97 l-21 -63 -293 0 -294 0 8 -22 c7 -21 16 -23 85 -26 l76 -3 0
-34 0 -35 -81 0 c-66 0 -86 -4 -106 -20 -14 -11 -33 -20 -42 -20 -9 0 -2 7 16
16 88 43 54 172 -46 175 -24 1 -29 3 -13 6 13 3 62 36 110 74 240 192 415 287
647 353 60 17 71 15 67 -10z m-2615 -449 c98 -23 103 -25 103 -42 0 -12 -7
-14 -37 -9 -71 13 -143 40 -143 53 0 16 -5 16 77 -2z m2717 -87 c4 -16 21 -38
43 -53 24 -16 32 -25 20 -25 -9 0 -17 5 -17 10 0 6 -6 10 -12 10 -24 1 -58 38
-58 62 0 24 13 48 16 31 1 -4 5 -20 8 -35z m876 7 l0 -36 -87 3 c-75 3 -88 6
-91 21 -8 41 4 47 93 47 l85 0 0 -35z m268 3 l-3 -33 -110 0 -110 0 -3 33 -3
32 116 0 116 0 -3 -32z m-2676 5 c10 -47 0 -53 -88 -53 -80 0 -84 1 -90 24
-10 40 2 46 91 46 71 0 84 -3 87 -17z m1096 -15 l-3 -33 -87 -3 -88 -3 0 36 0
35 91 0 90 0 -3 -32z m182 16 c0 -41 -19 -54 -80 -54 l-60 0 0 35 0 35 70 0
c57 0 70 -3 70 -16z m40 -13 c0 -27 -15 -49 -26 -39 -7 8 8 68 17 68 5 0 9
-13 9 -29z m174 2 c-4 -16 -8 -29 -9 -31 -1 -1 -29 -4 -61 -5 l-59 -2 -3 33
-3 32 71 0 70 0 -6 -27z m-2694 -35 c10 -6 3 -7 -22 -3 -21 3 -39 1 -43 -5 -3
-6 -11 -8 -16 -5 -5 4 -18 4 -29 0 -26 -8 -14 -37 14 -33 11 1 27 -1 34 -5 18
-12 52 2 53 21 1 15 2 15 6 0 5 -22 17 -23 32 -4 8 10 9 16 1 19 -6 3 -5 4 2
3 24 -5 18 -25 -13 -42 -41 -21 -121 -15 -150 12 l-21 19 48 22 c47 21 72 21
104 1z"/>
<path d="M3614 1184 c3 -9 6 -18 6 -20 0 -12 29 -1 45 16 18 20 17 20 -20 20
-30 0 -36 -3 -31 -16z"/>
<path d="M999 1199 c-39 -41 -38 -78 2 -118 47 -47 106 -36 138 26 18 35 13
60 -20 92 -41 42 -81 42 -120 0z"/>
<path d="M2029 1181 c-40 -40 -39 -82 1 -123 27 -27 36 -30 71 -25 74 10 106
72 70 131 -36 57 -95 64 -142 17z"/>
<path d="M1440 1175 c-34 -37 -33 -90 4 -121 61 -53 146 -12 146 71 0 68 -102
101 -150 50z"/>
<path d="M553 928 c2 -8 18 -12 40 -10 28 3 37 0 37 -12 0 -9 5 -16 10 -16 6
0 10 7 10 15 0 25 47 19 53 -7 6 -22 22 -18 22 5 0 7 12 13 27 15 21 3 27 -2
31 -20 l4 -23 8 23 c10 30 55 31 63 0 l5 -22 8 22 c10 25 47 30 55 7 4 -8 10
-15 15 -15 5 0 9 7 9 15 0 9 9 15 25 15 16 0 25 -6 25 -15 0 -8 5 -15 10 -15
6 0 10 7 10 15 0 25 49 19 60 -7 l9 -23 7 23 c4 14 14 22 29 22 15 0 25 -8 30
-22 l8 -23 4 23 c3 15 12 22 28 22 15 0 25 -8 29 -22 l7 -23 9 23 c11 26 60
32 60 7 0 -8 5 -15 10 -15 6 0 10 7 10 15 0 9 9 15 25 15 16 0 25 -6 25 -15 0
-8 7 -15 15 -15 8 0 15 7 15 15 0 26 48 19 53 -7 l4 -23 8 23 c5 14 15 22 30
22 15 0 25 -8 30 -22 l8 -23 4 23 c6 30 48 31 56 1 6 -23 27 -17 27 7 0 8 10
14 25 14 16 0 25 -6 25 -15 0 -8 5 -15 10 -15 6 0 10 7 10 15 0 24 47 19 53
-6 6 -23 27 -17 27 7 0 8 10 14 24 14 18 0 26 -7 29 -22 l4 -23 8 23 c5 14 15
22 30 22 15 0 25 -8 30 -22 l8 -23 4 23 c3 15 12 22 27 22 14 0 27 -9 34 -22
l11 -23 7 23 c4 14 14 22 29 22 15 0 25 -8 29 -22 l7 -23 9 23 c12 28 46 29
53 1 6 -23 27 -17 27 7 0 8 10 14 24 14 18 0 26 -7 29 -22 l4 -23 8 23 c10 30
51 30 61 0 l7 -23 8 23 c11 29 47 29 59 0 l9 -23 7 23 c9 29 54 31 54 2 0 -11
4 -20 9 -20 5 0 11 9 14 20 7 28 45 26 57 -2 l9 -23 7 23 c4 14 14 22 29 22
15 0 25 -8 29 -22 l7 -23 9 23 c12 28 46 29 53 1 6 -23 27 -17 27 7 0 22 36
17 53 -8 l16 -23 0 23 c1 30 46 31 54 1 6 -23 27 -17 27 7 0 23 40 16 50 -8
l9 -23 0 23 c1 18 7 22 31 22 20 0 30 -5 30 -15 0 -8 5 -15 10 -15 6 0 10 7
10 15 0 9 9 15 25 15 16 0 25 -6 25 -15 0 -8 5 -15 10 -15 6 0 10 7 10 15 0 9
9 15 25 15 16 0 25 -6 25 -15 0 -8 7 -15 15 -15 8 0 15 7 15 15 0 9 9 15 25
15 16 0 25 -6 25 -15 0 -8 5 -15 10 -15 6 0 10 7 10 15 0 25 47 19 56 -7 l7
-23 8 23 c10 25 47 30 55 7 4 -8 10 -15 15 -15 5 0 9 7 9 15 0 9 9 15 25 15
16 0 25 -6 25 -15 0 -8 5 -15 10 -15 6 0 10 7 10 15 0 25 49 19 60 -7 l9 -23
7 23 c7 26 54 32 54 7 0 -19 16 -19 24 0 8 23 45 18 55 -7 l8 -22 5 22 c7 26
58 32 58 7 0 -8 5 -15 10 -15 6 0 10 7 10 15 0 9 9 15 25 15 16 0 25 -6 25
-15 0 -8 7 -15 15 -15 8 0 14 6 13 13 -2 7 9 13 25 15 19 2 27 -1 27 -12 0 -9
5 -16 10 -16 6 0 10 7 10 15 0 25 47 19 54 -7 l7 -23 9 23 c12 29 48 29 60 0
l9 -23 7 23 c7 26 54 32 54 7 0 -8 5 -15 10 -15 6 0 10 7 10 15 0 24 47 19 53
-6 6 -23 27 -17 27 7 0 8 10 14 24 14 18 0 26 -7 29 -22 l4 -23 8 23 c10 30
50 30 60 0 l8 -23 4 23 c6 30 63 33 63 2 0 -11 5 -20 10 -20 6 0 10 9 10 20 0
29 45 27 54 -2 l7 -23 9 23 c12 28 46 29 53 1 6 -23 27 -17 27 7 0 8 10 14 24
14 18 0 26 -7 29 -22 l4 -23 8 23 c10 30 51 30 61 0 l7 -23 8 23 c11 28 49 30
56 2 3 -11 9 -20 14 -20 5 0 9 9 9 20 0 29 46 28 53 -2 6 -22 22 -18 22 5 0 7
10 13 23 15 16 2 25 -3 32 -20 l9 -23 7 23 c4 14 14 22 29 22 15 0 25 -8 29
-22 l7 -23 9 23 c12 29 48 29 60 0 l9 -23 7 23 c8 28 37 28 57 0 l16 -23 0 23
c1 12 6 22 11 22 6 0 10 5 10 10 0 7 -769 10 -2286 10 -1824 0 -2285 -3 -2281
-12z"/>
<path d="M590 897 c0 -8 8 -21 18 -30 17 -15 144 -17 1548 -17 3141 -1 2984
-1 2984 14 0 19 -23 33 -28 18 -2 -7 -15 -12 -28 -12 -18 0 -24 6 -25 23 l0
22 -11 -22 c-13 -26 -58 -32 -58 -8 0 8 -4 15 -10 15 -5 0 -10 -7 -10 -15 0
-21 -46 -19 -55 3 -6 16 -7 16 -19 0 -16 -22 -56 -24 -56 -3 0 8 -4 15 -10 15
-5 0 -10 -7 -10 -15 0 -9 -9 -15 -25 -15 -16 0 -25 6 -25 15 0 19 -19 19 -26
0 -10 -24 -52 -19 -57 8 l-4 22 -8 -22 c-10 -31 -50 -31 -60 0 l-8 22 -4 -22
c-6 -32 -50 -32 -63 0 l-9 22 -7 -22 c-7 -27 -54 -33 -54 -8 0 8 -4 15 -10 15
-5 0 -10 -7 -10 -15 0 -25 -47 -19 -54 8 l-7 22 -9 -22 c-13 -32 -57 -32 -63
0 l-4 22 -8 -22 c-10 -30 -48 -30 -63 0 l-11 22 0 -22 c-1 -31 -46 -32 -54 -2
-6 23 -27 17 -27 -7 0 -24 -47 -17 -54 9 l-7 22 -9 -22 c-12 -30 -48 -30 -59
-1 l-8 23 -7 -23 c-9 -26 -56 -32 -56 -7 0 8 -4 15 -10 15 -5 0 -10 -7 -10
-15 0 -24 -45 -18 -57 8 l-10 22 -7 -22 c-9 -29 -39 -29 -59 -1 l-16 23 0 -22
c-1 -18 -7 -23 -26 -23 -16 0 -25 6 -25 15 0 19 -19 19 -26 0 -10 -24 -52 -19
-57 8 l-4 22 -8 -22 c-10 -31 -50 -31 -60 0 l-8 22 -4 -22 c-6 -31 -48 -32
-56 -2 -6 23 -27 17 -27 -7 0 -8 -10 -14 -25 -14 -18 0 -25 5 -25 20 0 11 -4
20 -10 20 -5 0 -10 -9 -10 -20 0 -29 -46 -28 -53 1 -6 23 -27 17 -27 -7 0 -8
-10 -14 -24 -14 -18 0 -26 7 -29 23 l-4 22 -8 -22 c-10 -30 -48 -30 -63 -1
l-11 23 0 -22 c-1 -31 -50 -33 -58 -3 -7 26 -23 26 -23 0 0 -15 -7 -20 -25
-20 -18 0 -25 5 -25 20 0 11 -4 20 -9 20 -5 0 -11 -9 -14 -20 -7 -28 -45 -26
-56 2 l-8 23 -7 -23 c-10 -31 -56 -31 -57 1 l0 22 -11 -22 c-13 -26 -58 -32
-58 -8 0 8 -4 15 -10 15 -5 0 -10 -7 -10 -15 0 -9 -9 -15 -25 -15 -16 0 -25 6
-25 15 0 8 -5 15 -10 15 -6 0 -13 -7 -16 -15 -8 -20 -54 -20 -54 0 0 8 -4 15
-10 15 -5 0 -10 -7 -10 -15 0 -9 -9 -15 -25 -15 -16 0 -25 6 -25 15 0 8 -4 15
-10 15 -5 0 -10 -7 -10 -15 0 -20 -49 -20 -56 0 -8 19 -24 19 -24 0 0 -9 -9
-15 -25 -15 -16 0 -25 6 -25 15 0 8 -4 15 -10 15 -5 0 -10 -7 -10 -15 0 -9 -9
-15 -25 -15 -16 0 -25 6 -25 15 0 8 -7 15 -15 15 -8 0 -15 -7 -15 -15 0 -26
-48 -19 -53 8 l-4 22 -8 -22 c-5 -15 -15 -23 -30 -23 -15 0 -25 8 -30 23 l-8
22 -4 -22 c-3 -17 -11 -23 -29 -23 -16 0 -28 8 -34 23 l-9 22 -7 -22 c-4 -15
-14 -23 -29 -23 -15 0 -25 8 -30 23 l-8 22 -4 -22 c-6 -31 -48 -32 -56 -2 -6
23 -27 17 -27 -7 0 -8 -10 -14 -24 -14 -18 0 -26 7 -29 23 l-4 22 -8 -22 c-5
-16 -15 -23 -31 -23 -16 0 -28 8 -34 23 l-9 22 0 -22 c-1 -18 -7 -23 -26 -23
-14 0 -28 7 -31 15 -4 8 -10 15 -15 15 -5 0 -9 -7 -9 -15 0 -9 -9 -15 -25 -15
-16 0 -25 6 -25 15 0 8 -4 15 -10 15 -5 0 -10 -7 -10 -15 0 -24 -45 -18 -58 8
l-11 22 -7 -22 c-7 -27 -54 -33 -54 -8 0 8 -4 15 -10 15 -5 0 -10 -7 -10 -15
0 -25 -49 -19 -59 7 l-8 22 -5 -22 c-8 -31 -53 -30 -63 1 l-8 22 -4 -22 c-5
-27 -53 -34 -53 -8 0 8 -7 15 -15 15 -8 0 -15 -7 -15 -15 0 -24 -40 -18 -50 8
l-9 22 -7 -22 c-4 -15 -14 -23 -29 -23 -15 0 -25 8 -29 23 l-7 22 -9 -22 c-12
-30 -48 -30 -59 -1 l-8 23 -7 -23 c-10 -30 -51 -30 -61 1 l-8 22 -4 -22 c-6
-31 -48 -32 -56 -2 -6 23 -27 17 -27 -7 0 -8 -10 -14 -25 -14 -18 0 -25 5 -25
20 0 11 -4 20 -10 20 -5 0 -10 -9 -10 -20 0 -29 -45 -27 -54 3 l-7 22 -9 -22
c-12 -29 -50 -31 -57 -3 -3 11 -9 20 -14 20 -5 0 -9 -9 -9 -20 0 -15 -7 -20
-25 -20 -18 0 -25 5 -25 20 0 11 -4 20 -10 20 -5 0 -10 -9 -10 -20 0 -14 -7
-20 -24 -20 -15 0 -26 7 -29 20 -6 22 -27 27 -27 7z"/>
<path d="M670 819 c8 -5 37 -21 63 -35 27 -14 47 -27 45 -29 -1 -1 -69 -37
-149 -78 -174 -89 -189 -98 -189 -113 0 -21 58 -38 86 -25 33 15 34 15 34 -13
0 -38 16 -40 74 -7 29 17 57 31 60 31 6 0 -34 -36 -63 -57 -13 -9 40 -32 75
-33 53 0 71 13 320 232 20 18 26 18 135 2 63 -9 117 -19 121 -23 4 -3 -3 -47
-16 -96 -13 -50 -21 -94 -19 -98 10 -16 30 18 42 68 26 110 32 125 47 125 12
0 15 -6 11 -22 -66 -273 -79 -340 -69 -350 28 -28 40 2 74 179 28 144 37 179
51 181 15 3 17 -1 12 -25 -12 -51 -35 -148 -41 -165 -4 -13 0 -18 14 -18 16 0
23 10 31 50 6 28 16 73 22 100 9 44 25 61 41 45 3 -3 -10 -58 -29 -122 -34
-117 -36 -143 -9 -143 16 0 25 27 50 145 20 96 32 126 49 119 14 -5 7 -47 -52
-287 -16 -69 -17 -80 -4 -93 20 -20 43 -1 44 35 1 56 64 335 77 339 16 5 15
-33 -2 -123 -14 -67 -9 -94 12 -81 6 3 15 39 22 79 17 113 19 117 40 117 11 0
20 -2 20 -4 0 -3 -9 -50 -20 -106 -26 -130 -26 -160 -1 -160 20 0 20 0 42 173
9 69 16 97 26 97 10 0 12 -9 8 -32 -3 -18 -12 -85 -20 -148 -8 -63 -18 -134
-21 -157 -5 -35 -3 -44 10 -49 10 -4 22 -2 28 4 6 6 18 93 27 193 12 137 20
184 30 187 12 4 13 -14 8 -112 -6 -108 -6 -117 11 -114 15 3 17 18 20 111 3
104 3 107 25 107 l23 0 -12 -87 c-7 -49 -13 -112 -13 -141 -1 -46 2 -53 16
-50 21 4 32 53 32 149 1 97 9 129 33 129 19 0 20 -4 14 -67 -34 -340 -33 -323
-2 -323 23 0 23 0 30 162 7 156 13 218 21 226 14 15 19 -20 15 -108 -4 -78 -2
-104 8 -108 7 -2 15 -2 18 0 2 3 5 50 7 106 2 94 10 134 21 101 3 -8 8 -72 11
-142 6 -99 10 -130 22 -134 32 -12 36 13 19 129 -21 144 -20 148 4 148 13 0
20 -7 20 -19 0 -32 30 -325 35 -338 2 -7 14 -13 26 -13 20 0 21 3 14 68 -3 37
-10 85 -15 107 -5 22 -12 75 -16 118 -6 65 -4 77 8 77 12 0 16 -20 21 -96 4
-52 9 -100 13 -105 9 -15 35 11 30 30 -3 9 -8 51 -12 94 l-6 79 28 -4 29 -3 3
-132 c2 -128 3 -133 24 -133 21 0 21 2 14 135 -7 132 -7 135 13 135 12 0 21
-3 22 -7 1 -5 6 -84 12 -177 10 -143 15 -171 30 -180 14 -8 20 -8 27 4 5 8 8
22 5 30 -13 45 -35 314 -26 323 17 17 31 -4 31 -47 0 -24 3 -64 6 -90 5 -37
11 -46 27 -46 18 0 19 5 12 96 -7 90 -6 96 11 92 17 -3 20 -19 29 -128 8 -103
13 -125 27 -128 9 -2 19 1 22 6 3 6 -1 61 -9 123 -8 62 -15 114 -15 116 0 2 9
3 20 3 19 0 20 -8 22 -172 l3 -173 24 -3 24 -4 -8 176 c-6 157 -5 176 9 176
14 0 16 -15 16 -101 0 -90 2 -100 18 -97 15 3 17 17 20 101 3 94 4 98 24 95
21 -3 21 -7 19 -136 -2 -128 -2 -132 18 -132 20 0 21 5 21 136 0 104 3 135 13
131 9 -3 12 -48 12 -180 0 -180 5 -204 39 -191 15 6 16 17 12 83 -4 42 -7 123
-9 181 -2 89 0 105 14 108 13 2 18 -13 25 -90 7 -72 12 -93 24 -93 17 0 18 15
6 118 -7 64 -6 69 11 65 16 -3 20 -21 31 -148 17 -207 25 -233 61 -211 11 7 9
36 -13 178 -14 94 -26 173 -26 177 0 3 11 6 24 6 24 0 25 -3 32 -90 6 -80 9
-90 26 -90 21 0 21 10 2 143 -5 29 -2 37 10 37 23 0 26 -10 37 -132 11 -117
20 -141 41 -120 14 14 12 63 -7 170 -10 63 -10 74 2 79 8 3 16 3 19 0 3 -3 9
-81 12 -174 l7 -168 25 0 c20 0 25 5 24 25 -3 57 -15 209 -21 264 -5 53 -4 58
13 54 17 -3 19 -14 22 -101 2 -77 6 -97 17 -97 18 0 18 2 15 113 -2 88 -2 89
21 85 24 -3 24 -5 27 -136 2 -120 4 -133 20 -130 15 3 17 18 15 136 -1 82 2
132 8 132 15 0 17 -15 24 -193 6 -134 10 -170 22 -174 8 -3 19 -1 25 5 9 9 8
39 -15 337 -1 12 4 20 13 20 11 0 18 -23 27 -94 7 -52 17 -99 23 -105 18 -18
23 23 11 100 -15 99 -14 104 9 104 19 0 20 -7 20 -131 0 -130 0 -130 23 -127
25 3 25 1 13 161 -5 65 -4 97 4 97 5 0 10 -10 10 -22 0 -13 10 -94 22 -180 21
-155 22 -158 46 -158 23 0 24 2 18 47 -7 47 -42 245 -52 291 -4 19 -1 23 13
20 18 -3 21 -15 38 -140 4 -34 11 -48 22 -48 13 0 15 9 10 58 -3 31 -9 74 -13
95 -5 29 -3 37 8 37 17 0 23 -29 34 -163 5 -63 11 -90 21 -94 29 -11 33 12 18
111 -18 121 -19 146 -2 146 9 0 17 -48 30 -166 9 -92 20 -170 23 -175 3 -5 14
-9 25 -9 24 0 24 12 0 165 -29 180 -29 180 -5 183 20 3 22 -4 33 -120 7 -67
15 -126 17 -130 7 -10 31 -10 38 0 4 7 -17 177 -29 230 -4 15 -1 22 9 22 19 0
23 -17 32 -113 6 -76 16 -99 35 -80 6 6 4 42 -4 96 -14 88 -14 97 9 97 10 0
14 -31 16 -127 3 -120 4 -128 23 -128 18 0 19 7 17 130 -2 163 11 139 28 -50
7 -77 17 -150 21 -162 8 -23 33 -31 43 -15 4 7 -16 161 -39 308 -5 26 -3 44 3
48 15 9 32 -26 32 -67 0 -19 3 -55 6 -81 5 -36 11 -46 23 -44 17 4 17 6 5 127
-6 61 -5 73 7 69 15 -5 26 -79 28 -191 1 -51 5 -69 17 -74 29 -11 33 10 23
107 -15 145 -15 149 -4 151 12 3 20 -46 35 -211 11 -126 22 -157 49 -141 12 8
12 27 -2 133 -29 214 -31 234 -18 222 7 -6 16 -42 22 -80 15 -103 18 -114 34
-114 19 0 19 26 0 115 -13 63 -8 104 10 76 8 -14 55 -201 55 -222 0 -25 28
-45 42 -31 9 9 3 40 -20 124 -18 62 -32 119 -32 127 0 25 28 -8 35 -42 6 -33
43 -170 71 -264 11 -40 20 -53 34 -53 28 0 32 14 16 57 -19 51 -96 296 -96
306 0 15 29 6 34 -10 39 -135 50 -163 62 -163 19 0 17 30 -6 90 -21 54 -27
101 -11 84 6 -5 28 -58 49 -119 26 -72 45 -111 56 -113 29 -6 28 25 -2 95 -47
111 -55 133 -48 140 11 11 22 -8 70 -132 72 -182 99 -245 106 -250 4 -2 15 2
26 9 16 12 17 18 7 37 -12 23 -89 197 -128 287 -10 23 -16 44 -14 46 2 2 204
7 448 11 244 4 450 9 457 12 20 7 24 31 18 90 l-7 55 -36 -6 c-20 -3 -79 -8
-132 -12 -106 -7 -170 7 -241 52 l-38 24 -2252 0 c-1542 0 -2248 -4 -2238 -11z"/>
</g>
</svg>
