<svg xmlns="http://www.w3.org/2000/svg" viewBox="0 0 211.000000 206.000000" width="211.000000" height="206.000000">
<g transform="translate(0.000000,206.000000) scale(0.100000,-0.100000)"
fill="#000000" stroke="none">
<path d="M800 2059 c0 -19 32 -95 106 -251 46 -97 84 -180 84 -186 0 -13 -112
-48 -196 -63 -154 -25 -175 -31 -221 -63 -59 -40 -93 -89 -93 -131 0 -28 8
-38 59 -73 67 -47 85 -79 107 -185 23 -106 14 -169 -33 -233 -130 -177 -230
-299 -284 -346 -42 -36 -88 -93 -147 -183 -47 -71 -108 -159 -134 -194 -41
-53 -49 -70 -46 -99 6 -71 66 -69 113 4 17 26 44 69 60 95 45 72 105 142 152
178 23 18 87 73 143 122 146 129 194 165 246 185 46 18 47 18 92 -7 55 -28
153 -117 181 -162 21 -35 61 -238 61 -311 0 -25 -4 -48 -10 -51 -5 -3 -10 -15
-10 -27 0 -19 4 -20 103 -13 56 4 143 11 192 16 167 16 246 12 309 -17 54 -24
60 -25 124 -14 48 8 79 9 107 1 22 -5 56 -14 76 -19 58 -15 169 -3 169 17 0 5
-18 28 -41 52 -74 79 -95 157 -129 460 -36 323 -83 546 -132 620 -13 19 -44
44 -71 57 -56 27 -82 64 -98 142 -27 130 -43 153 -109 152 -42 -1 -89 -23 -94
-45 -2 -7 -15 -48 -30 -92 -14 -44 -26 -83 -26 -88 0 -4 12 -12 26 -17 14 -6
24 -15 22 -22 -4 -11 -116 -47 -148 -48 -8 0 -33 28 -55 62 -48 74 -155 283
-155 302 0 8 56 30 158 60 86 27 198 62 247 78 50 17 128 41 174 54 91 25 138
54 89 54 -27 0 -192 -46 -496 -140 -90 -27 -171 -50 -182 -50 -20 0 -21 1
-160 260 -63 119 -100 177 -100 159z m304 -640 c70 -134 80 -161 88 -228 5
-42 11 -97 14 -122 4 -25 -3 -114 -14 -200 -12 -85 -24 -194 -27 -244 -3 -49
-9 -103 -12 -119 -5 -29 -6 -29 -25 20 -19 47 -29 134 -28 235 1 59 -14 99
-37 99 -10 0 -27 7 -37 15 -17 13 -23 13 -44 -1 -13 -9 -26 -13 -29 -11 -8 9
17 256 33 322 22 95 19 129 -17 170 -25 28 -32 46 -34 87 -3 44 -8 55 -31 72
l-28 21 54 17 c94 29 87 35 174 -133z m-403 4 c8 -22 7 -30 -7 -40 -10 -7 -28
-13 -40 -13 -22 0 -54 24 -54 40 0 18 33 40 61 40 23 0 32 -6 40 -27z"/>
</g>
</svg>
