<svg xmlns="http://www.w3.org/2000/svg" viewBox="0 0 503.000000 607.000000" width="503.000000" height="607.000000">
<g transform="translate(0.000000,607.000000) scale(0.100000,-0.100000)"
fill="#000000" stroke="none">
<path d="M1385 6056 c-66 -21 -98 -41 -151 -98 -61 -64 -93 -128 -104 -206
-13 -91 -42 -137 -184 -279 -187 -188 -173 -183 -497 -183 -282 0 -316 -5
-404 -61 -47 -30 -48 -32 -30 -46 40 -31 123 -63 198 -77 43 -8 134 -34 203
-56 155 -50 287 -71 463 -71 138 -1 199 9 281 43 58 25 40 7 -27 -26 -38 -20
-78 -29 -152 -36 -116 -11 -144 -23 -218 -92 -32 -31 -58 -48 -67 -45 -9 4
-30 -11 -55 -38 -31 -34 -41 -53 -41 -78 0 -40 -9 -52 -85 -109 -33 -25 -86
-72 -117 -105 -55 -58 -60 -70 -71 -153 -3 -18 -93 -55 -185 -76 -103 -24 -97
-12 -100 -175 -6 -268 27 -602 75 -753 28 -90 109 -257 184 -383 l50 -82 -61
-200 c-33 -110 -60 -206 -60 -213 0 -8 13 -24 30 -36 l29 -22 142 92 142 92
63 -69 62 -69 86 38 c48 22 88 37 90 35 2 -2 0 -76 -4 -164 -8 -178 -26 -248
-80 -320 -17 -22 -38 -57 -48 -77 -9 -21 -22 -38 -28 -38 -21 0 -43 -36 -95
-149 l-52 -114 24 -17 23 -18 -24 -138 c-28 -171 -86 -411 -105 -441 -8 -12
-23 -24 -34 -28 -19 -6 -68 -75 -53 -75 4 0 13 -4 20 -9 10 -6 5 -20 -22 -59
-47 -70 -54 -107 -26 -130 17 -13 22 -28 22 -58 -1 -39 -49 -205 -94 -324 -37
-96 -41 -133 -24 -194 30 -103 126 -166 250 -166 70 0 121 16 158 49 26 24 32
36 36 87 3 42 12 68 30 92 22 29 26 47 34 170 15 220 15 222 56 261 l37 34 -3
77 c-5 99 4 129 93 315 79 162 114 256 141 371 13 56 24 77 59 115 55 58 70
124 61 252 l-7 88 44 48 c37 42 48 66 86 187 112 364 135 427 163 447 17 13
35 17 50 14 20 -5 30 -28 72 -153 27 -81 59 -158 71 -172 l22 -26 -20 -44
c-14 -34 -18 -57 -13 -90 5 -40 3 -49 -20 -73 -44 -46 -59 -221 -24 -289 16
-31 20 -59 20 -137 0 -112 13 -180 65 -343 54 -170 59 -209 40 -278 -13 -44
-14 -64 -6 -92 5 -19 12 -114 14 -210 3 -96 9 -187 15 -202 17 -43 71 -49 683
-79 262 -13 271 -12 295 46 17 41 18 86 3 156 -15 70 -40 93 -119 108 -176 34
-320 101 -399 184 l-33 35 27 45 26 46 -26 51 c-25 50 -27 64 -40 332 l-14
279 23 37 c19 30 25 55 29 128 4 81 2 92 -14 103 -13 7 -19 23 -19 46 0 29 -4
35 -21 35 -23 0 -23 0 6 79 14 38 16 83 12 315 -3 149 -8 287 -12 307 -6 31
-3 41 24 71 20 24 31 46 31 67 0 22 5 31 16 31 27 0 72 -55 79 -96 4 -21 16
-53 27 -71 26 -44 105 -105 172 -134 53 -23 56 -26 56 -60 0 -29 5 -38 23 -43
21 -7 21 -7 2 -16 -11 -4 -28 -11 -38 -14 -17 -5 -17 -7 2 -33 11 -16 29 -69
40 -120 11 -50 31 -113 44 -140 28 -54 70 -98 86 -89 18 11 51 117 52 165 1
26 -4 57 -10 69 -16 30 -14 41 13 53 21 10 33 3 122 -66 89 -69 100 -82 111
-122 18 -67 40 -93 96 -117 38 -16 227 -172 741 -613 556 -477 711 -604 792
-653 134 -79 276 -142 314 -138 l30 3 -45 80 c-59 103 -118 183 -202 268 -38
38 -288 259 -558 491 -269 231 -575 494 -680 584 -134 115 -196 176 -212 205
-36 71 -66 92 -130 91 l-55 0 -99 89 c-97 87 -99 89 -99 133 0 44 0 44 35 44
24 0 45 9 71 33 34 29 94 111 94 128 0 3 -67 10 -150 14 -129 6 -153 10 -176
27 -36 29 -51 12 -36 -40 16 -54 15 -69 -6 -74 -16 -5 -21 7 -36 105 -10 60
-20 115 -22 121 -2 6 15 19 38 29 24 10 54 27 68 38 l24 21 -28 55 c-16 30
-46 75 -66 101 -52 66 -77 118 -125 267 -98 299 -189 501 -231 511 l-24 6 26
31 c34 41 30 61 -61 266 -94 213 -145 338 -145 353 0 6 35 50 78 97 94 103
102 116 102 175 0 63 -23 77 -129 77 -77 0 -81 1 -81 22 0 43 -22 100 -47 123
-57 53 -117 13 -173 -111 -50 -112 -62 -119 -151 -88 -42 15 -49 21 -48 43 1
18 3 20 6 7 3 -10 11 -16 18 -14 7 3 18 0 24 -6 30 -30 81 95 81 200 0 76 12
107 81 209 42 63 88 164 77 168 -32 11 -44 28 -48 72 -3 27 -13 63 -22 79 -9
17 -32 64 -51 105 -79 173 -212 251 -421 249 -39 0 -89 -6 -111 -13z"/>
</g>
</svg>
